<svg xmlns="http://www.w3.org/2000/svg" width="593" height="180" viewBox="0 0 593 180" fill="none">
<path d="M71.35 24L24.35 49.49H118.76C118.76 49.49 71.05 24.18 71.35 24ZM24 60.17V155.91H119.73V60.17H24ZM101.47 134.5C101.467 135.268 101.161 136.004 100.618 136.548C100.074 137.091 99.3383 137.397 98.57 137.4H45.65C44.8825 137.395 44.1479 137.088 43.6052 136.545C43.0625 136.002 42.7552 135.268 42.75 134.5V81.57C42.7553 80.8034 43.0628 80.0699 43.6058 79.5288C44.1488 78.9876 44.8834 78.6826 45.65 78.68H98.57C99.3366 78.6826 100.071 78.9876 100.614 79.5288C101.157 80.0699 101.465 80.8034 101.47 81.57V134.5Z" fill="#E11F1D"/>
<path d="M174.23 74.93C182.51 68.45 193.08 65.27 204.89 65.27C211.673 65.4009 218.418 66.317 224.99 68C226.36 68.34 228.18 68.72 228.18 68.72L229.78 85.4H228.16C226.45 77.68 219.89 68.8 203.42 68.8C186.04 68.8 171.27 79.8 171.27 103.32C171.27 127.18 186.38 140.32 205 140.32C219.66 140.32 227.64 130.77 230.26 124.07H231.88L226.25 140.07C226.25 140.07 223.52 140.75 222.25 141.2C216.433 142.901 210.411 143.803 204.35 143.88C194.12 143.88 184.35 141.83 176.07 136.27C166.98 130.02 159.93 119.68 159.93 105.03C159.851 99.251 161.101 93.531 163.584 88.3119C166.067 83.0928 169.716 78.5143 174.25 74.93M382 126.22C382 138.15 380.81 140.22 374.34 140.78H371.21V142.43H427.35L431.35 126.27C431.35 126.27 430.9 126.13 429.79 125.85C426.84 131.75 423.79 135.73 421.73 136.85C419.23 138.1 415.94 138.56 407.19 138.56C397.19 138.56 394.81 137.31 393.45 135.95C391.64 134 391.35 131.35 391.35 125.35V108.1C391.35 105.1 391.69 105.03 395.1 105.03H401.68C406.11 105.03 408.84 105.14 410.43 105.6C412.7 106.17 413.5 107.87 413.95 109.91L414.95 114.35H416.56V91.74H414.95L414.03 96.4C413.47 99.23 412.67 99.92 411.31 100.4C409.95 100.88 406.42 101.08 401.65 101.08H395.05C391.64 101.08 391.3 101.08 391.3 97.9V75.16C391.3 70.84 391.3 70.62 394.71 70.62H402.89C407.89 70.62 411.52 70.73 413.89 71.29C419.8 72.77 420.82 76.75 422.52 82.09L424.14 81.94L422.35 66.75H373.23V68.35L375.06 68.58C381.76 69.37 381.98 71.08 381.98 82.9L382 126.22ZM444.45 126.22C444.45 138.14 444.22 139.74 437.63 140.42L434.23 140.76V142.38H487.51L491.51 126.22C491.51 126.22 490.56 125.89 489.92 125.72C487.65 131.51 484.64 135.72 482.37 137.04C480.55 138.04 478.16 138.52 468.51 138.52C459.51 138.52 457.38 137.16 456.13 135.91C454.13 133.74 453.74 130.79 453.74 123.64V82.91C453.74 70.98 453.97 69.17 460.67 68.6L463.35 68.35V66.75H434.21V68.35L437.05 68.58C444.2 69.15 444.43 70.96 444.43 82.89L444.45 126.22ZM568.76 140.76V142.38H541.16V140.76C548.57 140.76 548.43 138.37 548.43 137.23C548.207 135.173 547.709 133.155 546.95 131.23L541.95 115.78C541.15 113.28 540.69 112.94 537.28 112.94H520.12C517.29 112.94 516.61 113.28 515.8 115.66L511.8 127.59C510.09 132.7 509.3 135.77 509.3 137.02C509.3 138.27 510.3 140.74 516.3 140.74V142.4H493.21V140.82C499.06 140.82 502.21 137.82 503.77 133.73C505.82 128.5 508.99 121.12 513.77 108.4L527.35 72.35L526.87 70.93L534.35 65.35L555.42 127.25C557.87 134.53 559.42 136.9 561.63 138.66C563.727 140.055 566.192 140.793 568.71 140.78M538.35 104.87L532.17 86.35C531.419 83.9235 530.545 81.5371 529.55 79.2H529.35C529.02 79.77 527.88 82.49 526.63 85.9L519.47 105.66C518.56 108.28 518.68 108.39 521.86 108.39H535.86C539.16 108.39 539.38 107.94 538.36 104.86M271.75 107.71C267.03 99.2 257.59 79.81 254.95 74.14C252.95 69.81 257.6 68.34 260.53 68.34V66.74H234.23V68.39C236.67 68.39 241.89 69.39 245.76 76.86L260.12 104.86C263.41 111.22 263.75 112.58 263.75 118.86V125.98C263.75 138.14 263.54 139.73 256.94 140.41L252.19 140.75V142.37H284.61V140.75L279.88 140.41C273.75 139.95 273.07 138.14 273.07 125.98V118.86C273.07 112.56 273.07 110.26 271.69 107.69M373.23 140.75C371.23 140.75 369.12 139.87 366.23 137.5C358.41 131.13 356.29 127.33 347.23 112.68C346.66 111.77 341.82 104.55 334.67 104.55H314.26C312.2 104.55 312.1 106.8 312.1 106.8V126.21C312.1 138.14 311.88 139.62 305.29 140.41L302.05 140.75V142.37H331.05V140.75L328.26 140.41C321.67 139.5 321.44 138.14 321.44 126.21V110.73C321.44 108.35 321.75 107.97 323.76 107.97H327.63C332.18 107.97 333.42 109.11 335.13 111.61C338.64 116.71 343.9 125.67 346.85 129.87C354.92 141.34 359.85 142.39 369.54 142.39H373.25L373.23 140.75ZM321.42 100.58V73.88C321.42 70.7 321.76 70.24 328.81 70.24C341.41 70.24 347.42 79.09 347.42 87.74C347.42 96.85 342.48 101.49 341.94 101.83C342.503 102.034 343.105 102.106 343.7 102.04C347.9 102.04 357.7 97.7 357.7 86.04C357.807 82.7799 356.99 79.5561 355.342 76.7408C353.695 73.9256 351.285 71.6337 348.39 70.13C343.16 67.29 335.92 66.72 328.87 66.72H302.87V68.35C302.87 68.35 312.08 68.46 312.08 76.47V98.35C312.08 98.35 312.18 100.6 314.24 100.6L321.42 100.58ZM289.77 73.7C289.25 75.46 283.34 87.24 283.34 87.24H285.72L298.79 68.35V66.75H281.88V68.35C281.88 68.35 291.49 67.95 289.77 73.71" fill="#1D1D1B"/>
</svg>