<svg width="2560" height="1087" viewBox="0 0 2560 1087" fill="none" xmlns="http://www.w3.org/2000/svg">
<rect y="288" width="2560" height="799" fill="url(#paint0_linear)" fill-opacity="0.8"/>
<path d="M-22 96L11.467 85.3C44.7531 75 111.868 53 178.802 42.7C245.193 32 312.67 32 379.604 32C445.634 32 511.663 32 578.597 48C645.893 64 712.465 96 779.399 96C846.333 96 913.267 64 980.201 58.7C1046.77 53 1114.07 75 1181 112C1247.03 149 1313.06 203 1380 197.3C1447.47 192 1513.86 128 1580.8 122.7C1647.91 117 1714.67 171 1781.6 186.7C1848.17 203 1915.47 181 1982.4 154.7C2048.61 128 2116.27 96 2181.4 101.3C2249.05 107 2315.26 149 2382.2 138.7C2449.49 128 2516.07 64 2550.44 32L2583 0V288H2549.53C2516.25 288 2449.13 288 2382.2 288C2315.81 288 2248.33 288 2181.4 288C2115.37 288 2049.34 288 1982.4 288C1915.11 288 1848.53 288 1781.6 288C1714.67 288 1647.73 288 1580.8 288C1514.23 288 1446.93 288 1380 288C1313.97 288 1247.94 288 1181 288C1113.53 288 1047.14 288 980.201 288C913.086 288 846.333 288 779.399 288C712.827 288 645.531 288 578.597 288C512.387 288 444.729 288 379.604 288C311.947 288 245.736 288 178.802 288C111.506 288 44.934 288 10.5625 288H-22V96Z" fill="url(#paint1_linear)" fill-opacity="0.8"/>
<defs>
<linearGradient id="paint0_linear" x1="41.7658" y1="605.658" x2="2546.14" y2="658.56" gradientUnits="userSpaceOnUse">
<stop stop-color="#25C9DB"/>
<stop offset="1" stop-color="#2DDAED"/>
</linearGradient>
<linearGradient id="paint1_linear" x1="20.5" y1="114.5" x2="2561" y2="266" gradientUnits="userSpaceOnUse">
<stop stop-color="#25C9DB"/>
<stop offset="1" stop-color="#2DDAED"/>
</linearGradient>
</defs>
</svg>
