<svg width="750" height="666" viewBox="0 0 750 666" fill="none" xmlns="http://www.w3.org/2000/svg">
<ellipse cx="363.5" cy="311.5" rx="318.5" ry="307.5" fill="#8341D9"/>
<path d="M109.026 534.841L86.2246 520.335C85.1773 507.6 84.8501 494.815 85.2446 482.043L97.0722 485.061L85.398 477.634C86.0428 461.846 87.4708 451.431 87.4708 451.431C87.4708 451.431 133.571 481.336 162.973 521.871L157.96 556.153L169.916 532.179C172.975 537.068 175.722 542.145 178.142 547.379C202.367 600.231 204.721 650.976 183.4 660.723C162.079 670.47 125.157 635.526 100.933 582.675C93.4228 566.29 89.2775 547.452 87.1296 529.254L109.026 534.841Z" fill="#38B5D4"/>
<path d="M62.1899 585.855L35.163 585.208C27.6748 574.846 20.7777 564.071 14.5046 552.934L26.1916 549.412L12.3539 549.08C4.73395 535.232 0.565918 525.579 0.565918 525.579C0.565918 525.579 55.5087 527.381 101.658 546.903L115.11 578.839L112.937 552.143C118.086 554.75 123.066 557.678 127.846 560.909C175.939 593.647 204.219 635.872 191.012 655.222C177.805 674.572 128.112 663.719 80.0199 630.98C65.1107 620.831 51.8116 606.845 40.5542 592.376L62.1899 585.855Z" fill="#38B5D4"/>
<path d="M447.386 186.947L426.207 184.459L418.731 249.157L399.647 338.501C396.993 339.791 394.827 341.903 393.473 344.522C392.118 347.14 391.646 350.126 392.127 353.034C392.609 355.943 394.018 358.618 396.144 360.662C398.271 362.706 401.002 364.009 403.93 364.378C406.859 364.747 409.828 364.161 412.396 362.708C414.965 361.256 416.995 359.014 418.184 356.316C419.373 353.618 419.658 350.609 418.997 347.736C418.335 344.863 416.763 342.281 414.513 340.373L433.682 287.727L447.386 186.947Z" fill="#FFB6B6"/>
<path d="M478.152 648.188H460.703L452.401 580.97L478.155 580.972L478.152 648.188Z" fill="#FFB6B6"/>
<path d="M482.602 665.081L426.337 665.079V664.368C426.338 658.568 428.645 653.005 432.752 648.904C436.859 644.802 442.429 642.498 448.237 642.498H448.239L482.603 642.499L482.602 665.081Z" fill="#2F2E41"/>
<path d="M619.646 654.427L564.402 665.081L564.267 664.383C563.166 658.688 564.375 652.789 567.629 647.984C570.882 643.179 575.914 639.862 581.616 638.762L581.618 638.761L615.359 632.254L619.646 654.427Z" fill="#2F2E41"/>
<path d="M450.792 80.921L460.931 100.347L536.866 83.6212L528.548 45.9562C521.963 16.1431 495.567 -5.38788 465.715 1.18763C435.863 7.76314 421.933 36.9027 428.518 66.7158L440.754 104.792L453.135 102.065L450.792 80.921Z" fill="#2F2E41"/>
<path d="M612.069 638.684L594.936 641.987L574.021 577.563L599.307 572.687L612.069 638.684Z" fill="#FFB6B6"/>
<path d="M423.715 295.193C423.715 295.193 416.24 332.519 426.207 387.263C436.173 442.008 438.665 465.648 438.665 465.648C438.665 465.648 431.19 474.357 436.173 479.334C441.157 484.311 436.173 494.265 436.173 494.265L447.386 614.952L486.007 608.731L481.024 495.509C481.024 495.509 486.007 485.555 483.516 483.067C481.024 480.578 486.007 465.648 486.007 465.648L492.237 347.449L530.858 476.846C530.858 476.846 527.12 481.823 530.858 485.555C534.595 489.288 542.07 507.951 542.07 507.951L566.987 595.045L606.854 587.58L584.429 488.044C584.429 488.044 586.921 481.823 583.183 478.09C582.093 476.948 581.297 475.559 580.863 474.042C580.429 472.525 580.37 470.925 580.692 469.381C580.692 469.381 584.429 465.648 579.446 460.671C574.462 455.694 571.971 435.787 571.971 435.787C571.971 435.787 568.233 302.658 555.775 295.193C543.316 287.727 423.715 295.193 423.715 295.193Z" fill="#2F2E41"/>
<path d="M480.048 89.3261C499.313 89.3261 514.931 73.7287 514.931 54.4885C514.931 35.2482 499.313 19.6509 480.048 19.6509C460.782 19.6509 445.164 35.2482 445.164 54.4885C445.164 73.7287 460.782 89.3261 480.048 89.3261Z" fill="#FFB6B6"/>
<path d="M529.209 99.0828C529.209 99.0828 554.529 96.1208 562.004 103.586L554.529 254.134C554.529 254.134 559.512 257.867 557.021 266.576C555.574 272.293 555.574 278.279 557.021 283.995C557.021 283.995 564.496 292.704 560.758 296.437C557.021 300.17 422.469 297.681 422.469 297.681C422.469 297.681 417.486 288.972 424.961 283.995C432.436 279.018 428.698 265.332 428.698 265.332C428.698 265.332 426.207 261.599 432.436 255.378C438.665 249.157 443.648 198.145 443.648 198.145L427.452 135.935C427.452 135.935 443.756 117.558 462.39 116.171L529.209 99.0828Z" fill="#E6E6E6"/>
<path d="M446.754 136.791L427.452 135.935C427.452 135.935 416.24 158.331 414.994 178.238L408.133 252.502L452.369 259.111L446.754 136.791Z" fill="#E6E6E6"/>
<path d="M450.162 56.216L437.203 39.5663C436.439 36.0608 437.095 32.3958 439.029 29.3722C440.962 26.3485 444.015 24.2122 447.521 23.43L496.473 12.6471C499.984 11.884 503.654 12.5395 506.681 14.4704C509.709 16.4013 511.849 19.4506 512.632 22.9519L512.659 23.0722L509.153 43.1774L508.538 43.0675C478.158 37.6581 469.504 39.5608 450.657 55.7901L450.162 56.216Z" fill="#2F2E41"/>
<path d="M580.536 322.242L578.2 224.273L575.708 154.598L545.808 158.331L561.866 324.862C560.157 327.003 559.131 329.608 558.921 332.338C558.71 335.068 559.324 337.798 560.684 340.176C562.044 342.554 564.086 344.47 566.548 345.676C569.009 346.882 571.776 347.323 574.491 346.942C577.206 346.561 579.745 345.376 581.778 343.539C583.811 341.702 585.246 339.298 585.897 336.638C586.548 333.978 586.385 331.184 585.429 328.618C584.473 326.052 582.769 323.831 580.536 322.242Z" fill="#FFB6B6"/>
<path d="M540.192 105.686L562.004 103.586C562.004 103.586 565.742 103.586 569.479 116.028C573.217 128.47 593.764 259.967 593.764 259.967L548.3 264.088L540.192 105.686Z" fill="#E6E6E6"/>
<path d="M404.679 261.138H401.764V181.384C401.764 175.322 400.569 169.32 398.246 163.719C395.923 158.119 392.518 153.031 388.226 148.744C383.934 144.458 378.839 141.058 373.231 138.738C367.624 136.418 361.613 135.224 355.543 135.224H186.35C180.28 135.224 174.269 136.418 168.662 138.738C163.054 141.058 157.959 144.458 153.667 148.744C149.375 153.03 145.97 158.119 143.647 163.719C141.324 169.32 140.129 175.322 140.129 181.384V618.922C140.129 631.164 144.999 642.905 153.667 651.561C162.335 660.218 174.091 665.081 186.349 665.081H355.543C367.802 665.081 379.558 660.218 388.226 651.561C396.894 642.905 401.764 631.164 401.764 618.922V317.909H404.679V261.138Z" fill="#3F3D56"/>
<path d="M357.408 147.233H335.323C336.338 149.72 336.726 152.418 336.452 155.09C336.177 157.762 335.249 160.325 333.749 162.554C332.249 164.783 330.223 166.609 327.85 167.872C325.477 169.135 322.829 169.796 320.14 169.796H223.211C220.521 169.796 217.874 169.135 215.5 167.872C213.127 166.609 211.101 164.783 209.601 162.554C208.101 160.325 207.173 157.761 206.899 155.09C206.624 152.418 207.012 149.72 208.027 147.233H187.4C178.245 147.233 169.466 150.865 162.992 157.33C156.519 163.794 152.883 172.562 152.883 181.705V618.601C152.883 623.127 153.775 627.61 155.51 631.792C157.245 635.974 159.787 639.775 162.992 642.976C166.198 646.176 170.003 648.716 174.191 650.448C178.378 652.18 182.867 653.072 187.4 653.072H357.408C361.941 653.072 366.43 652.18 370.617 650.448C374.805 648.716 378.61 646.177 381.815 642.976C385.021 639.775 387.563 635.974 389.298 631.792C391.033 627.61 391.925 623.127 391.925 618.601V181.705C391.925 177.178 391.033 172.695 389.298 168.513C387.563 164.331 385.021 160.531 381.815 157.33C378.61 154.129 374.805 151.59 370.617 149.857C366.43 148.125 361.941 147.233 357.408 147.233Z" fill="white"/>
<path d="M245.113 306.011L249.814 322.274L309.888 321.216L309.361 291.418C308.945 267.832 292.254 247.49 268.637 247.906C245.021 248.322 230.004 268.262 230.421 291.847L233.852 322.555L243.646 322.383L245.113 306.011Z" fill="#2F2E41"/>
<path d="M271.322 317.383C286.208 317.383 298.275 305.331 298.275 290.465C298.275 275.599 286.208 263.547 271.322 263.547C256.436 263.547 244.368 275.599 244.368 290.465C244.368 305.331 256.436 317.383 271.322 317.383Z" fill="#FFB6B6"/>
<path d="M324.972 332.443L324.362 343.765C311.426 357.202 293.78 365.112 275.128 365.834C256.477 366.555 238.271 360.032 224.333 347.634C223.71 347.087 223.099 346.514 222.501 345.93C226.239 342.222 236.555 333.065 248.004 332.219L299.632 328.971C299.632 328.971 319.191 326.682 324.972 332.443Z" fill="#E4E4E4"/>
<path d="M300.828 271.564C300.792 269.503 300.146 267.498 298.971 265.803C298.847 265.629 298.723 265.467 298.598 265.306C297.599 264.033 296.319 263.008 294.858 262.31C293.397 261.613 291.795 261.263 290.176 261.287L270.803 261.635L251.442 261.971C248.669 262.027 246.03 263.177 244.104 265.171C242.178 267.164 241.121 269.839 241.164 272.609L245.774 281.878L248.428 287.203L248.864 286.955C265.62 277.548 272.472 277.424 294.649 286.171L295.097 286.345L296.854 281.853L300.84 271.663L300.828 271.564Z" fill="#2F2E41"/>
<path d="M329.333 338.054C323.805 345.112 317.023 351.093 309.324 355.697L308.116 334.072L324.972 332.443C324.972 332.443 326.991 332.443 329.333 338.054Z" fill="#E4E4E4"/>
<path d="M272.335 367.106C254.331 367.126 236.949 360.526 223.506 348.564C222.871 348.007 222.243 347.419 221.63 346.818C214.393 339.993 208.636 331.757 204.714 322.62C200.792 313.483 198.79 303.639 198.83 293.698C198.83 274.229 206.575 255.558 220.359 241.791C234.144 228.024 252.841 220.29 272.335 220.29C291.83 220.29 310.526 228.024 324.311 241.791C338.096 255.558 345.84 274.229 345.84 293.698C345.901 310.056 340.431 325.955 330.315 338.82C323.444 347.631 314.65 354.76 304.602 359.662C294.554 364.564 283.518 367.11 272.335 367.106ZM272.335 222.779C253.508 222.8 235.458 230.279 222.145 243.574C208.832 256.869 201.343 274.896 201.322 293.698C201.283 303.305 203.219 312.817 207.01 321.646C210.801 330.475 216.366 338.433 223.36 345.028C223.955 345.61 224.55 346.167 225.156 346.7C232.421 353.133 240.927 358.011 250.152 361.035C259.376 364.059 269.123 365.164 278.792 364.282C288.46 363.4 297.846 360.55 306.369 355.908C314.893 351.265 322.374 344.928 328.351 337.288C338.124 324.86 343.408 309.5 343.349 293.698C343.327 274.896 335.839 256.869 322.526 243.574C309.213 230.279 291.163 222.8 272.335 222.779Z" fill="#3F3D56"/>
<path d="M338.414 468.878H208.923C207.632 468.878 206.353 468.624 205.16 468.131C203.967 467.637 202.884 466.914 201.971 466.002C201.057 465.091 200.333 464.008 199.839 462.817C199.345 461.625 199.091 460.349 199.091 459.059C199.091 457.77 199.345 456.493 199.839 455.301C200.333 454.11 201.057 453.028 201.971 452.116C202.884 451.204 203.967 450.481 205.16 449.987C206.353 449.494 207.632 449.24 208.923 449.24H338.414C339.706 449.24 340.984 449.494 342.177 449.987C343.37 450.481 344.454 451.204 345.367 452.116C346.28 453.028 347.004 454.11 347.498 455.301C347.992 456.493 348.247 457.77 348.247 459.059C348.247 460.349 347.992 461.625 347.498 462.817C347.004 464.008 346.28 465.091 345.367 466.002C344.454 466.914 343.37 467.637 342.177 468.131C340.984 468.624 339.706 468.878 338.414 468.878Z" fill="#8341D9"/>
<path d="M338.414 499.983H208.923C206.315 499.983 203.814 498.949 201.971 497.107C200.127 495.266 199.091 492.768 199.091 490.164C199.091 487.56 200.127 485.062 201.971 483.221C203.814 481.379 206.315 480.345 208.923 480.345H338.414C341.022 480.345 343.523 481.379 345.367 483.221C347.211 485.062 348.247 487.56 348.247 490.164C348.247 492.768 347.211 495.266 345.367 497.107C343.523 498.949 341.022 499.983 338.414 499.983Z" fill="#8341D9"/>
<path d="M306.891 437.396H240.448C237.84 437.396 235.339 436.361 233.495 434.52C231.651 432.678 230.615 430.18 230.615 427.576C230.615 424.972 231.651 422.474 233.495 420.633C235.339 418.791 237.84 417.757 240.448 417.757H306.891C309.499 417.757 312 418.791 313.844 420.633C315.688 422.474 316.724 424.972 316.724 427.576C316.724 430.18 315.688 432.678 313.844 434.52C312 436.361 309.499 437.396 306.891 437.396Z" fill="#8341D9"/>
<path d="M748.754 666H1.24585C0.915428 666 0.59856 665.869 0.364918 665.636C0.131277 665.402 0 665.086 0 664.756C0 664.426 0.131277 664.109 0.364918 663.876C0.59856 663.643 0.915428 663.512 1.24585 663.512H748.754C749.085 663.512 749.401 663.643 749.635 663.876C749.869 664.109 750 664.426 750 664.756C750 665.086 749.869 665.402 749.635 665.636C749.401 665.869 749.085 666 748.754 666Z" fill="#CACACA"/>
</svg>
