<svg width="66" height="60" viewBox="0 0 66 60" fill="none" xmlns="http://www.w3.org/2000/svg">
<path d="M12.5192 16.4434L36 2.88675L59.4808 16.4434V43.5566L36 57.1133L12.5192 43.5566V16.4434Z" stroke="#2DDAED" stroke-width="5" />
<path d="M6.51924 16.4434L30 2.88675L53.4808 16.4434V43.5566L30 57.1133L6.51924 43.5566V16.4434Z" stroke="#9D66EE" stroke-width="5" />
<path d="M34.2979 31.3721H29.2881V40H26.4609V18.6719H33.5215C35.9238 18.6719 37.7695 19.2188 39.0586 20.3125C40.3574 21.4062 41.0068 22.998 41.0068 25.0879C41.0068 26.416 40.6455 27.5732 39.9229 28.5596C39.21 29.5459 38.2139 30.2832 36.9346 30.7715L41.9443 39.8242V40H38.9268L34.2979 31.3721ZM29.2881 29.0723H33.6094C35.0059 29.0723 36.1143 28.7109 36.9346 27.9883C37.7646 27.2656 38.1797 26.2988 38.1797 25.0879C38.1797 23.7695 37.7842 22.7588 36.9932 22.0557C36.2119 21.3525 35.0791 20.9961 33.5947 20.9863H29.2881V29.0723Z" fill="#2DDAED" />
<path d="M32.2979 32.3721H27.2881V41H24.4609V19.6719H31.5215C33.9238 19.6719 35.7695 20.2188 37.0586 21.3125C38.3574 22.4062 39.0068 23.998 39.0068 26.0879C39.0068 27.416 38.6455 28.5732 37.9229 29.5596C37.21 30.5459 36.2139 31.2832 34.9346 31.7715L39.9443 40.8242V41H36.9268L32.2979 32.3721ZM27.2881 30.0723H31.6094C33.0059 30.0723 34.1143 29.7109 34.9346 28.9883C35.7646 28.2656 36.1797 27.2988 36.1797 26.0879C36.1797 24.7695 35.7842 23.7588 34.9932 23.0557C34.2119 22.3525 33.0791 21.9961 31.5947 21.9863H27.2881V30.0723Z" fill="#9D66EE" />
</svg>
